#N canvas 281 200 738 435 10;
#X obj 90 152 route 1 2;
#X obj 89 204 tabplay~ snare;
#X obj 90 177 bng 15 250 50 0 empty empty empty 17 7 0 10 -262144 -1
-1;
#X obj 243 176 bng 15 250 50 0 empty empty empty 17 7 0 10 -262144
-1 -1;
#X obj 242 203 tabplay~ bass;
#X obj 505 76 table snare;
#X obj 509 109 bng 15 250 50 0 empty empty empty 17 7 0 10 -262144
-1 -1;
#X obj 509 133 openpanel;
#X obj 509 195 soundfiler;
#X obj 510 275 bng 15 250 50 0 empty empty empty 17 7 0 10 -262144
-1 -1;
#X obj 510 299 openpanel;
#X obj 510 361 soundfiler;
#X obj 506 242 table bass;
#X msg 201 103 1;
#X msg 245 103 2;
#X text 84 14 comport reads the serial port for incoming values The
arduino sketch detects knocks on the piezosensor ( i.e if sensorValue
> threshold) and writes 1 or 2 in the serialport depending on which
piezo is hit.;
#X msg 509 165 read -resize \$1 snare;
#X msg 510 331 read -resize \$1 bass;
#X obj 88 240 *~ 0.5;
#X obj 241 239 *~ 0.5;
#X text 275 101 dummy values for test;
#X text 536 106 Click to load sample;
#X text 536 274 Click to load sample;
#X obj 91 321 dac~;
#X connect 0 0 2 0;
#X connect 0 1 3 0;
#X connect 1 0 18 0;
#X connect 2 0 1 0;
#X connect 3 0 4 0;
#X connect 4 0 19 0;
#X connect 6 0 7 0;
#X connect 7 0 16 0;
#X connect 9 0 10 0;
#X connect 10 0 17 0;
#X connect 13 0 0 0;
#X connect 14 0 0 0;
#X connect 16 0 8 0;
#X connect 17 0 11 0;
#X connect 18 0 23 0;
#X connect 18 0 23 1;
#X connect 19 0 23 1;
#X connect 19 0 23 0;
