#N canvas 71 159 614 422 10;
#X obj 259 36 inlet;
#X obj 92 275 outlet;
#X obj 142 275 outlet;
#X obj 190 274 outlet;
#X obj 237 275 outlet;
#X obj 286 276 outlet;
#X obj 340 276 outlet;
#X obj 154 211 unpack f f f f f f;
#X msg 212 135 40 45 52 57 61 64;
#X msg 336 136 43 47 52 55 59 67;
#X msg 91 134 40 47 52 55 59 64;
#X obj 260 90 route 0 1 2 3;
#X msg 461 134 42 47 54 59 62 64;
#X text 358 60 randomly choose one of four chords \, and output the
midi pitches for each of the six strings.;
#X connect 0 0 11 0;
#X connect 7 0 1 0;
#X connect 7 1 2 0;
#X connect 7 2 3 0;
#X connect 7 3 4 0;
#X connect 7 4 5 0;
#X connect 7 5 6 0;
#X connect 8 0 7 0;
#X connect 9 0 7 0;
#X connect 10 0 7 0;
#X connect 11 0 10 0;
#X connect 11 1 8 0;
#X connect 11 2 9 0;
#X connect 11 3 12 0;
#X connect 12 0 7 0;
