#N canvas 63 22 1425 794 10;
#X declare -lib mrpeach;
#X obj 245 127 hsl 180 15 1 40 0 0 empty \$0-width_ctrl width -2 -8
1 10 -262144 -1 -1 3213 1;
#X obj 240 156 hsl 180 15 0.9 0.999 0 0 empty \$0-decay_ctrl decay
-2 -8 1 10 -262144 -1 -1 17177 1;
#X obj 244 189 hsl 180 15 2000 8000 0 0 empty \$0-cutoff_ctrl cutoff
-2 -8 1 10 -262144 -1 -1 11038 1;
#N canvas 319 329 847 508 plucked_instrument 0;
#X obj 22 63 inlet;
#X obj 92 60 inlet;
#X obj 175 60 inlet;
#X obj 241 59 inlet;
#X obj 311 60 inlet;
#X obj 374 63 inlet;
#X obj 473 65 inlet;
#X obj 515 65 inlet;
#X obj 557 65 inlet;
#X text 17 16 6 inlets representing the six strings of our instrument.
A midi note integer message to any inlet excites that particular string
at the specified pitch.;
#X text 469 46 Width \, decay \, and cutoff inlets;
#X obj 21 165 karpluck~;
#X obj 21 373 outlet~;
#X obj 21 349 *~ 0.25;
#X obj 473 128 s \$0-width;
#X obj 516 107 s \$0-decay;
#X obj 557 87 s \$0-cutoff;
#X obj 106 87 r \$0-width;
#X obj 188 89 r \$0-decay;
#X obj 264 90 r \$0-cutoff;
#X obj 92 181 karpluck~;
#X obj 175 203 karpluck~;
#X obj 241 224 karpluck~;
#X obj 309 233 karpluck~;
#X obj 374 264 karpluck~;
#X text 334 112 comment;
#X text 73 343 scale the output down by approx 12dB to avoid clipping
;
#X connect 0 0 11 0;
#X connect 1 0 20 0;
#X connect 2 0 21 0;
#X connect 3 0 22 0;
#X connect 4 0 23 0;
#X connect 5 0 24 0;
#X connect 6 0 14 0;
#X connect 7 0 15 0;
#X connect 8 0 16 0;
#X connect 11 0 13 0;
#X connect 13 0 12 0;
#X connect 17 0 11 1;
#X connect 17 0 20 1;
#X connect 17 0 21 1;
#X connect 17 0 22 1;
#X connect 17 0 23 1;
#X connect 17 0 24 1;
#X connect 18 0 11 2;
#X connect 18 0 20 2;
#X connect 18 0 21 2;
#X connect 18 0 22 2;
#X connect 18 0 23 2;
#X connect 18 0 24 2;
#X connect 19 0 11 3;
#X connect 19 0 20 3;
#X connect 19 0 22 3;
#X connect 19 0 21 3;
#X connect 19 0 23 3;
#X connect 19 0 24 3;
#X connect 20 0 13 0;
#X connect 21 0 13 0;
#X connect 22 0 13 0;
#X connect 23 0 13 0;
#X connect 24 0 13 0;
#X restore 78 221 pd plucked_instrument;
#X obj 166 42 hsl 180 15 1 250 0 0 empty \$0-strum_speed_ctrl strum_speed
-2 -8 1 10 -262144 -1 -1 503 1;
#X obj 85 58 tgl 15 0 empty empty empty 17 7 0 10 -262144 -1 -1 1 1
;
#X obj -141 166 loadbang;
#X msg -146 196 0.995;
#X msg -103 196 5700;
#X obj -176 290 s \$0-width_ctrl;
#X obj -146 266 s \$0-decay_ctrl;
#X obj -103 245 s \$0-cutoff_ctrl;
#X msg -176 196 8;
#X obj -70 222 s \$0-strum_speed_ctrl;
#X msg -63 197 8;
#X text -118 57 Click here to start strummer -->;
#X msg -77 8 \; pd dsp 1;
#X text -10 8 <-- Turn DSP on by clicking here;
#X obj 80 136 strummer4c;
#X obj 370 6 vradio 15 1 0 4 empty empty empty 0 -8 0 10 -262144 -1
-1 0;
#X floatatom 206 94 5 0 0 0 - - -;
#X symbolatom 73 68 10 0 0 0 - - -;
#X obj -82 -39 cnv 15 100 60 empty empty empty 20 12 0 14 -233017 -66577
0;
#X obj 88 416 osc~;
#X obj 89 482 *~;
#X obj 89 533 clip~ -1 1;
#X obj 146 458 hsl 128 15 1 20 1 0 empty empty empty -2 -8 0 10 -262144
-1 -1 1600 1;
#X obj 91 388 hsl 128 15 0.5 25 0 0 empty empty empty -2 -8 0 10 -262144
-1 -1 0 1;
#X text 139 417 <-- Sine wave (between -1 and 1);
#X text 128 482 <-- Multipled by a positive number X;
#X text 150 496 (between -X and X);
#X text 160 533 <-- Trim at -1 and 1;
#X text 183 561 a square wave as X increases);
#X text 183 547 (the sine wave tends to become;
#X text 229 632 <-- Normalize between 0 and 1;
#X text 87 373 Frequency of the oscillator;
#X text 141 443 Number X (between 1 and 20 \, log);
#X obj 89 616 *~;
#X obj 89 645 +~;
#X floatatom 166 618 5 0 0 0 - - -;
#X obj 152 645 expr 1-$f1;
#X floatatom 152 667 5 0 0 0 - - -;
#X text 252 644 and adjust depth;
#X text 255 373 ("Rate");
#X text 340 443 ("Shape");
#X text 163 582 "Depth";
#X obj -32 553 *~;
#X text 116 329 Tembello;
#X obj 97 1040 freeverb~;
#X msg 181 745 roomsize \$1;
#X msg 180 806 damping \$1;
#X msg 176 876 wet \$1;
#X msg 175 897 dry \$1;
#X msg 194 966 freeze \$1;
#X msg 194 1006 bypass \$1;
#X obj 97 1156 dac~;
#X obj 194 949 tgl 15 0 empty empty empty 17 7 0 10 -262144 -1 -1 0
1;
#X obj 194 989 tgl 15 0 empty empty empty 17 7 0 10 -262144 -1 -1 0
1;
#X floatatom 305 858 5 0 0 0 - - -;
#X obj 236 880 expr 1-$f1;
#X obj 306 724 hsl 128 15 0 1 0 0 empty empty empty -2 -8 0 10 -4034
-1 -1 5100 1;
#X obj 308 781 hsl 128 15 0 1 0 0 empty empty empty -2 -8 0 10 -260097
-1 -1 1400 1;
#X floatatom 305 801 5 0 0 0 - - -;
#X floatatom 303 749 5 0 0 0 - - -;
#X text 285 955 Freeze the reverb;
#X text 285 1015 the dry signal pass through.;
#X text 284 1002 Trun the reverb off and let;
#X text 355 866 Wet signal to dry signal ratio;
#X text 355 882 (0 : all dry \, 1 : all wet);
#X text 356 801 Damping level;
#X text 355 747 Roomize;
#X text 190 1151 Pierre Massat \, GuitarExtended \, 2012;
#X floatatom 447 364 5 0 0 0 - - -;
#X obj 601 150 unpackOSC;
#X obj 601 121 udpreceive 12345;
#X obj 600 311 routeOSC /roll /pitch /yaw;
#X floatatom 596 341 5 0 0 0 - - -;
#X floatatom 649 347 5 0 0 0 - - -;
#X floatatom 702 336 5 0 0 0 - - -;
#X obj 601 173 routeOSC /myo-music;
#X obj 601 205 routeOSC /position /pose;
#X floatatom 726 277 5 0 0 0 - - -;
#X floatatom 782 277 5 0 0 0 - - -;
#X obj 671 276 bng 15 250 50 0 empty empty empty 17 7 0 10 -262144
-1 -1;
#X floatatom 837 277 5 0 0 0 - - -;
#X floatatom 893 277 5 0 0 0 - - -;
#X floatatom 948 277 5 0 0 0 - - -;
#X obj 605 91 import mrpeach;
#X text 723 90 comment;
#X text 611 55 Receiving the data;
#X text 917 507 based on a value from 0-100;
#X text 377 272 between 2000-8000;
#X obj 701 500 / 100;
#X text 476 489 between 0-0.5;
#X text 738 540 between 0-1;
#X obj 823 437 spigot;
#X obj 818 377 t b f;
#X obj 821 342 change;
#X floatatom 776 474 5 0 0 0 - - -;
#X obj 763 440 bng 15 250 50 0 empty empty empty 17 7 0 10 -262144
-1 -1;
#X msg 772 402 0;
#X obj 938 442 spigot;
#X obj 933 382 t b f;
#X obj 936 347 change;
#X floatatom 891 479 5 0 0 0 - - -;
#X obj 878 445 bng 15 250 50 0 empty empty empty 17 7 0 10 -262144
-1 -1;
#X obj 1053 437 spigot;
#X obj 1048 377 t b f;
#X obj 1051 342 change;
#X floatatom 1006 474 5 0 0 0 - - -;
#X obj 993 440 bng 15 250 50 0 empty empty empty 17 7 0 10 -262144
-1 -1;
#X obj 1165 440 spigot;
#X obj 1160 380 t b f;
#X obj 1163 345 change;
#X floatatom 1118 477 5 0 0 0 - - -;
#X obj 1105 443 bng 15 250 50 0 empty empty empty 17 7 0 10 -262144
-1 -1;
#X msg 888 407 1;
#X msg 1002 402 2;
#X msg 1114 404 3;
#X obj 424 318 * 80;
#X obj 598 515 / 200;
#X obj 671 234 routeOSC /new /thumbToPinky /fingersSpread /fist /waveIn
/waveOut;
#X connect 0 0 3 6;
#X connect 1 0 3 7;
#X connect 3 0 46 0;
#X connect 4 0 18 1;
#X connect 5 0 18 0;
#X connect 6 0 12 0;
#X connect 6 0 7 0;
#X connect 6 0 8 0;
#X connect 6 0 14 0;
#X connect 7 0 10 0;
#X connect 8 0 11 0;
#X connect 12 0 9 0;
#X connect 14 0 13 0;
#X connect 18 0 3 0;
#X connect 18 1 3 1;
#X connect 18 2 3 2;
#X connect 18 3 3 3;
#X connect 18 4 3 4;
#X connect 18 5 3 5;
#X connect 20 0 18 2;
#X connect 23 0 24 0;
#X connect 24 0 25 0;
#X connect 25 0 37 0;
#X connect 26 0 24 1;
#X connect 27 0 23 0;
#X connect 37 0 38 0;
#X connect 38 0 46 1;
#X connect 40 0 38 1;
#X connect 40 0 41 0;
#X connect 46 0 48 0;
#X connect 48 0 55 0;
#X connect 48 0 55 1;
#X connect 49 0 48 0;
#X connect 50 0 48 0;
#X connect 51 0 48 0;
#X connect 52 0 48 0;
#X connect 53 0 48 0;
#X connect 54 0 48 0;
#X connect 56 0 53 0;
#X connect 57 0 54 0;
#X connect 59 0 52 0;
#X connect 60 0 49 0;
#X connect 60 0 63 0;
#X connect 61 0 50 0;
#X connect 61 0 62 0;
#X connect 73 0 79 0;
#X connect 74 0 73 0;
#X connect 75 0 76 0;
#X connect 75 1 77 0;
#X connect 75 2 78 0;
#X connect 76 0 119 0;
#X connect 77 0 120 0;
#X connect 78 0 92 0;
#X connect 79 0 80 0;
#X connect 80 0 75 0;
#X connect 80 1 121 0;
#X connect 82 0 97 0;
#X connect 84 0 103 0;
#X connect 85 0 108 0;
#X connect 86 0 113 0;
#X connect 92 0 51 0;
#X connect 92 0 59 0;
#X connect 92 0 58 0;
#X connect 95 0 98 0;
#X connect 95 0 99 0;
#X connect 95 0 20 0;
#X connect 96 0 100 0;
#X connect 96 1 95 1;
#X connect 97 0 96 0;
#X connect 100 0 95 0;
#X connect 101 0 104 0;
#X connect 101 0 105 0;
#X connect 101 0 20 0;
#X connect 102 0 116 0;
#X connect 102 1 101 1;
#X connect 103 0 102 0;
#X connect 106 0 109 0;
#X connect 106 0 110 0;
#X connect 106 0 20 0;
#X connect 107 0 117 0;
#X connect 107 1 106 1;
#X connect 108 0 107 0;
#X connect 111 0 114 0;
#X connect 111 0 115 0;
#X connect 111 0 20 0;
#X connect 112 0 118 0;
#X connect 112 1 111 1;
#X connect 113 0 112 0;
#X connect 116 0 101 0;
#X connect 117 0 106 0;
#X connect 118 0 111 0;
#X connect 119 0 3 8;
#X connect 119 0 72 0;
#X connect 120 0 37 1;
#X connect 120 0 39 0;
#X connect 120 0 40 0;
#X connect 121 0 83 0;
#X connect 121 1 81 0;
#X connect 121 2 82 0;
#X connect 121 3 84 0;
#X connect 121 4 85 0;
#X connect 121 5 86 0;
