#N canvas 42 86 873 538 10;
#X declare -lib mrpeach;
#X obj 27 59 unpackOSC;
#X obj 27 33 udpreceive 12345;
#X obj 26 223 routeOSC /roll /pitch /yaw;
#X floatatom 26 247 5 0 0 0 - - -;
#X floatatom 77 246 5 0 0 0 - - -;
#X floatatom 128 248 5 0 0 0 - - -;
#X obj 27 85 routeOSC /myo-music;
#X obj 27 117 routeOSC /position /pose;
#X floatatom 152 189 5 0 0 0 - - -;
#X floatatom 208 189 5 0 0 0 - - -;
#X obj 97 160 routeOSC /event /pinky /spread /fist /waveleft /waveleft
;
#X obj 97 188 bng 15 250 50 0 empty empty empty 17 7 0 10 -262144 -1
-1;
#X floatatom 263 189 5 0 0 0 - - -;
#X floatatom 319 189 5 0 0 0 - - -;
#X floatatom 374 189 5 0 0 0 - - -;
#X text 295 673 see also:;
#X obj 259 34 import mrpeach;
#X obj 128 334 mtof;
#X obj 128 295 * 2;
#X obj 25 301 * 2;
#X obj 24 338 mtof;
#X obj 25 371 osc~;
#X obj 128 369 osc~;
#X obj 160 693 dac~;
#X obj 293 582 catch~ \$0-striker;
#X obj 160 624 +~;
#X obj 277 620 +~;
#X obj 160 668 +~;
#X obj -68 500 tgl 15 0 empty empty empty 0 -6 0 8 -262144 -1 -1 0
1;
#N canvas 68 56 127 196 striker 0;
#X obj -1 -1 noise~;
#X obj 16 61 vline~;
#X obj 15 85 *~;
#X obj 15 109 *~;
#X obj -1 132 *~;
#X obj -1 175 throw~ \$0-striker;
#X obj 16 19 r striker;
#X msg 16 40 1 \, 0 10 0;
#X obj -1 153 *~ 0.1;
#X connect 0 0 4 0;
#X connect 1 0 2 0;
#X connect 1 0 2 1;
#X connect 2 0 3 0;
#X connect 2 0 3 1;
#X connect 3 0 4 1;
#X connect 4 0 8 0;
#X connect 6 0 7 0;
#X connect 7 0 1 0;
#X connect 8 0 5 0;
#X restore 65 565 pd striker;
#N canvas 89 58 396 220 casing 0;
#X obj 168 39 r~ \$0-casefb1;
#X obj 14 76 s~ \$0-casefb1;
#X obj 60 141 bp~ 1243 12;
#X obj 144 141 bp~ 287 12;
#X obj 221 141 bp~ 431 12;
#X obj 144 171 clip~ -0.3 0.3;
#X obj 143 86 delwrite~ \$0-a 10;
#X obj 268 39 delwrite~ \$0-b 10;
#X obj -3 50 delread~ \$0-b 0.88;
#X obj 143 106 delread~ \$0-a 0.77;
#X obj 168 60 *~ 0.7;
#X obj 145 198 s~ \$0-casefb2;
#X obj 267 14 r~ \$0-casefb2;
#X obj 143 -4 r~ \$0-casein;
#X obj -3 97 s~ \$0-caseout;
#X connect 0 0 10 0;
#X connect 2 0 5 0;
#X connect 3 0 5 0;
#X connect 4 0 5 0;
#X connect 5 0 11 0;
#X connect 8 0 1 0;
#X connect 8 0 14 0;
#X connect 9 0 2 0;
#X connect 9 0 3 0;
#X connect 9 0 4 0;
#X connect 10 0 6 0;
#X connect 12 0 7 0;
#X connect 13 0 6 0;
#X connect 13 0 7 0;
#X restore 65 587 pd casing;
#X obj 277 645 s~ \$0-casein;
#X obj 176 645 r~ \$0-caseout;
#X obj 159 586 +~;
#X obj 175 563 catch~ \$0-bell2;
#X obj 159 542 catch~ \$0-bell1;
#N canvas 0 22 1058 738 bell1 0;
#X obj 335 221 partialgroup;
#X obj 335 80 t f f f;
#X obj 335 152 * 2.002;
#X obj 357 130 * 3;
#X obj 379 106 * 9.6;
#X obj 527 82 * 0.9;
#X obj 435 80 t f f f;
#X obj 435 152 * 0.008;
#X obj 457 130 * 0.02;
#X obj 479 106 * 0.004;
#X obj 335 191 pack f f f f f f f;
#X obj 335 242 throw~ \$0-bell1;
#X obj 583 221 partialgroup;
#X obj 583 80 t f f f;
#X obj 683 80 t f f f;
#X obj 583 191 pack f f f f f f f;
#X obj 583 242 throw~ \$0-bell1;
#X obj 583 152 * 2.49;
#X obj 627 106 * 2.571;
#X obj 605 130 * 11;
#X obj 683 152 * 0.02;
#X obj 705 130 * 0.04;
#X obj 727 106 * 0.02;
#X obj 775 82 * 0.25;
#X obj 85 452 partialgroup;
#X obj 85 311 t f f f;
#X obj 185 311 t f f f;
#X obj 85 422 pack f f f f f f f;
#X obj 85 473 throw~ \$0-bell1;
#X obj 85 383 * 3.05;
#X obj 185 383 * 0.005;
#X obj 107 361 * 6.242;
#X obj 207 360 * 0.05;
#X obj 129 337 * 12.49;
#X obj 229 337 * 0.05;
#X obj 277 313 * 0.14;
#X obj 85 221 partialgroup;
#X obj 85 80 t f f f;
#X obj 185 80 t f f f;
#X obj 207 130 * 0.02;
#X obj 85 191 pack f f f f f f f;
#X obj 85 242 throw~ \$0-bell1;
#X obj 85 150 * 0.501;
#X obj 107 130 * 1;
#X obj 129 106 * 0.7;
#X obj 185 152 * 0.002;
#X obj 229 106 * 0.001;
#X obj 277 82 * 1.2;
#X obj 336 451 partialgroup;
#X obj 336 310 t f f f;
#X obj 436 310 t f f f;
#X obj 336 421 pack f f f f f f f;
#X obj 336 472 throw~ \$0-bell1;
#X obj 336 382 * 13;
#X obj 358 360 * 16;
#X obj 380 336 * 24;
#X obj 436 382 * 0.02;
#X obj 458 359 * 0.03;
#X obj 480 336 * 0.04;
#X obj 528 312 * 0.07;
#X text 84 31 fundamental \, sub \, inharmonic prime;
#X text 396 31 primary modes;
#X text 626 31 secondary modes;
#X text 128 269 circular modes;
#X text 404 267 striker;
#X obj 85 57 r fundamental1;
#X obj 185 57 r strength1;
#X obj 277 57 r decay1;
#X obj 335 57 r fundamental1;
#X obj 435 57 r strength1;
#X obj 527 57 r decay1;
#X obj 583 57 r fundamental1;
#X obj 683 57 r strength1;
#X obj 775 57 r decay1;
#X obj 85 288 r fundamental1;
#X obj 185 288 r strength1;
#X obj 277 288 r decay1;
#X obj 336 287 r fundamental1;
#X obj 436 288 r strength1;
#X obj 528 287 r decay1;
#X connect 0 0 11 0;
#X connect 1 0 2 0;
#X connect 1 1 3 0;
#X connect 1 2 4 0;
#X connect 2 0 10 0;
#X connect 3 0 10 2;
#X connect 4 0 10 4;
#X connect 5 0 10 6;
#X connect 6 0 7 0;
#X connect 6 1 8 0;
#X connect 6 2 9 0;
#X connect 7 0 10 1;
#X connect 8 0 10 3;
#X connect 9 0 10 5;
#X connect 10 0 0 0;
#X connect 12 0 16 0;
#X connect 13 0 17 0;
#X connect 13 1 19 0;
#X connect 13 2 18 0;
#X connect 14 0 20 0;
#X connect 14 1 21 0;
#X connect 14 2 22 0;
#X connect 15 0 12 0;
#X connect 17 0 15 0;
#X connect 18 0 15 4;
#X connect 19 0 15 2;
#X connect 20 0 15 1;
#X connect 21 0 15 3;
#X connect 22 0 15 5;
#X connect 23 0 15 6;
#X connect 24 0 28 0;
#X connect 25 0 29 0;
#X connect 25 1 31 0;
#X connect 25 2 33 0;
#X connect 26 0 30 0;
#X connect 26 1 32 0;
#X connect 26 2 34 0;
#X connect 27 0 24 0;
#X connect 29 0 27 0;
#X connect 30 0 27 1;
#X connect 31 0 27 2;
#X connect 32 0 27 3;
#X connect 33 0 27 4;
#X connect 34 0 27 5;
#X connect 35 0 27 6;
#X connect 36 0 41 0;
#X connect 37 0 42 0;
#X connect 37 1 43 0;
#X connect 37 2 44 0;
#X connect 38 0 45 0;
#X connect 38 1 39 0;
#X connect 38 2 46 0;
#X connect 39 0 40 3;
#X connect 40 0 36 0;
#X connect 42 0 40 0;
#X connect 43 0 40 2;
#X connect 44 0 40 4;
#X connect 45 0 40 1;
#X connect 46 0 40 5;
#X connect 47 0 40 6;
#X connect 48 0 52 0;
#X connect 49 0 53 0;
#X connect 49 1 54 0;
#X connect 49 2 55 0;
#X connect 50 0 56 0;
#X connect 50 1 57 0;
#X connect 50 2 58 0;
#X connect 51 0 48 0;
#X connect 53 0 51 0;
#X connect 54 0 51 2;
#X connect 55 0 51 4;
#X connect 56 0 51 1;
#X connect 57 0 51 3;
#X connect 58 0 51 5;
#X connect 59 0 51 6;
#X connect 65 0 37 0;
#X connect 66 0 38 0;
#X connect 67 0 47 0;
#X connect 68 0 1 0;
#X connect 69 0 6 0;
#X connect 70 0 5 0;
#X connect 71 0 13 0;
#X connect 72 0 14 0;
#X connect 73 0 23 0;
#X connect 74 0 25 0;
#X connect 75 0 26 0;
#X connect 76 0 35 0;
#X connect 77 0 49 0;
#X connect 78 0 50 0;
#X connect 79 0 59 0;
#X restore 65 521 pd bell1;
#N canvas 0 22 1058 738 bell2 0;
#X obj 335 221 partialgroup;
#X obj 335 80 t f f f;
#X obj 335 152 * 2.002;
#X obj 357 130 * 3;
#X obj 379 106 * 9.6;
#X obj 527 82 * 0.9;
#X obj 435 80 t f f f;
#X obj 435 152 * 0.008;
#X obj 457 130 * 0.02;
#X obj 479 106 * 0.004;
#X obj 335 191 pack f f f f f f f;
#X obj 583 221 partialgroup;
#X obj 583 80 t f f f;
#X obj 683 80 t f f f;
#X obj 583 191 pack f f f f f f f;
#X obj 583 152 * 2.49;
#X obj 627 106 * 2.571;
#X obj 605 130 * 11;
#X obj 683 152 * 0.02;
#X obj 705 130 * 0.04;
#X obj 727 106 * 0.02;
#X obj 775 82 * 0.25;
#X obj 85 452 partialgroup;
#X obj 85 311 t f f f;
#X obj 185 311 t f f f;
#X obj 85 422 pack f f f f f f f;
#X obj 85 383 * 3.05;
#X obj 185 383 * 0.005;
#X obj 107 361 * 6.242;
#X obj 207 360 * 0.05;
#X obj 129 337 * 12.49;
#X obj 229 337 * 0.05;
#X obj 277 313 * 0.14;
#X obj 85 221 partialgroup;
#X obj 85 80 t f f f;
#X obj 185 80 t f f f;
#X obj 207 130 * 0.02;
#X obj 85 191 pack f f f f f f f;
#X obj 85 150 * 0.501;
#X obj 107 130 * 1;
#X obj 129 106 * 0.7;
#X obj 185 152 * 0.002;
#X obj 229 106 * 0.001;
#X obj 277 82 * 1.2;
#X obj 336 451 partialgroup;
#X obj 336 310 t f f f;
#X obj 436 310 t f f f;
#X obj 336 421 pack f f f f f f f;
#X obj 336 382 * 13;
#X obj 358 360 * 16;
#X obj 380 336 * 24;
#X obj 436 382 * 0.02;
#X obj 458 359 * 0.03;
#X obj 480 336 * 0.04;
#X obj 528 312 * 0.07;
#X text 84 31 fundamental \, sub \, inharmonic prime;
#X text 396 31 primary modes;
#X text 626 31 secondary modes;
#X text 128 269 circular modes;
#X text 404 267 striker;
#X obj 85 57 r fundamental2;
#X obj 185 57 r strength2;
#X obj 277 57 r decay2;
#X obj 335 57 r fundamental2;
#X obj 435 57 r strength2;
#X obj 527 57 r decay2;
#X obj 583 57 r fundamental2;
#X obj 683 57 r strength2;
#X obj 775 57 r decay2;
#X obj 85 288 r fundamental2;
#X obj 185 288 r strength2;
#X obj 277 288 r decay2;
#X obj 336 287 r fundamental2;
#X obj 436 287 r strength2;
#X obj 528 287 r decay2;
#X obj 85 242 throw~ \$0-bell2;
#X obj 335 242 throw~ \$0-bell2;
#X obj 583 242 throw~ \$0-bell2;
#X obj 85 473 throw~ \$0-bell2;
#X obj 336 472 throw~ \$0-bell2;
#X connect 0 0 76 0;
#X connect 1 0 2 0;
#X connect 1 1 3 0;
#X connect 1 2 4 0;
#X connect 2 0 10 0;
#X connect 3 0 10 2;
#X connect 4 0 10 4;
#X connect 5 0 10 6;
#X connect 6 0 7 0;
#X connect 6 1 8 0;
#X connect 6 2 9 0;
#X connect 7 0 10 1;
#X connect 8 0 10 3;
#X connect 9 0 10 5;
#X connect 10 0 0 0;
#X connect 11 0 77 0;
#X connect 12 0 15 0;
#X connect 12 1 17 0;
#X connect 12 2 16 0;
#X connect 13 0 18 0;
#X connect 13 1 19 0;
#X connect 13 2 20 0;
#X connect 14 0 11 0;
#X connect 15 0 14 0;
#X connect 16 0 14 4;
#X connect 17 0 14 2;
#X connect 18 0 14 1;
#X connect 19 0 14 3;
#X connect 20 0 14 5;
#X connect 21 0 14 6;
#X connect 22 0 78 0;
#X connect 23 0 26 0;
#X connect 23 1 28 0;
#X connect 23 2 30 0;
#X connect 24 0 27 0;
#X connect 24 1 29 0;
#X connect 24 2 31 0;
#X connect 25 0 22 0;
#X connect 26 0 25 0;
#X connect 27 0 25 1;
#X connect 28 0 25 2;
#X connect 29 0 25 3;
#X connect 30 0 25 4;
#X connect 31 0 25 5;
#X connect 32 0 25 6;
#X connect 33 0 75 0;
#X connect 34 0 38 0;
#X connect 34 1 39 0;
#X connect 34 2 40 0;
#X connect 35 0 41 0;
#X connect 35 1 36 0;
#X connect 35 2 42 0;
#X connect 36 0 37 3;
#X connect 37 0 33 0;
#X connect 38 0 37 0;
#X connect 39 0 37 2;
#X connect 40 0 37 4;
#X connect 41 0 37 1;
#X connect 42 0 37 5;
#X connect 43 0 37 6;
#X connect 44 0 79 0;
#X connect 45 0 48 0;
#X connect 45 1 49 0;
#X connect 45 2 50 0;
#X connect 46 0 51 0;
#X connect 46 1 52 0;
#X connect 46 2 53 0;
#X connect 47 0 44 0;
#X connect 48 0 47 0;
#X connect 49 0 47 2;
#X connect 50 0 47 4;
#X connect 51 0 47 1;
#X connect 52 0 47 3;
#X connect 53 0 47 5;
#X connect 54 0 47 6;
#X connect 60 0 34 0;
#X connect 61 0 35 0;
#X connect 62 0 43 0;
#X connect 63 0 1 0;
#X connect 64 0 6 0;
#X connect 65 0 5 0;
#X connect 66 0 12 0;
#X connect 67 0 13 0;
#X connect 68 0 21 0;
#X connect 69 0 23 0;
#X connect 70 0 24 0;
#X connect 71 0 32 0;
#X connect 72 0 45 0;
#X connect 73 0 46 0;
#X connect 74 0 54 0;
#X restore 65 543 pd bell2;
#X obj -83 589 mod 2;
#X obj -83 609 sel 0 1;
#X obj -83 568 f;
#X obj -50 568 + 1;
#X obj -83 547 metro 60;
#X msg -134 641 \; striker bang \; strength1 1 \; decay1 2000 \; fundamental1
650;
#X msg -8 641 \; striker bang \; strength2 1 \; decay2 2000 \; fundamental2
653;
#X obj -53 376 > 50;
#X obj 473 555 dac~;
#X obj 473 456 +~ 300;
#X msg 507 384 3;
#X msg 473 384 0.1;
#X obj 473 432 *~ 800;
#X obj 473 528 environment;
#X obj 473 355 loadbang;
#X obj 401 330 tgl 15 0 empty empty empty 0 -6 0 8 -262144 -1 -1 1
1;
#X obj -15 376 < 50;
#X obj 376 354 tgl 15 0 empty empty empty 0 -6 0 8 -262144 -1 -1 0
1;
#X obj 473 406 logosc~;
#X obj 473 480 logosc~;
#X obj 473 504 plastichorn~;
#X connect 0 0 6 0;
#X connect 1 0 0 0;
#X connect 2 0 3 0;
#X connect 2 1 4 0;
#X connect 2 2 5 0;
#X connect 3 0 19 0;
#X connect 3 0 45 0;
#X connect 3 0 54 0;
#X connect 5 0 18 0;
#X connect 6 0 7 0;
#X connect 7 0 2 0;
#X connect 7 1 10 0;
#X connect 10 0 11 0;
#X connect 10 1 8 0;
#X connect 10 2 9 0;
#X connect 10 3 12 0;
#X connect 10 4 13 0;
#X connect 10 5 14 0;
#X connect 17 0 22 0;
#X connect 18 0 17 0;
#X connect 19 0 20 0;
#X connect 20 0 21 0;
#X connect 24 0 25 1;
#X connect 24 0 26 1;
#X connect 25 0 27 0;
#X connect 26 0 31 0;
#X connect 27 0 23 0;
#X connect 27 0 23 1;
#X connect 28 0 42 0;
#X connect 32 0 27 1;
#X connect 33 0 25 0;
#X connect 33 0 26 0;
#X connect 34 0 33 1;
#X connect 35 0 33 0;
#X connect 38 0 39 0;
#X connect 39 0 43 0;
#X connect 39 1 44 0;
#X connect 40 0 38 0;
#X connect 40 0 41 0;
#X connect 41 0 40 1;
#X connect 42 0 40 0;
#X connect 45 0 53 0;
#X connect 47 0 57 0;
#X connect 48 0 56 0;
#X connect 49 0 56 0;
#X connect 50 0 47 0;
#X connect 51 0 46 0;
#X connect 51 0 46 1;
#X connect 52 0 49 0;
#X connect 53 0 49 0;
#X connect 54 0 55 0;
#X connect 55 0 48 0;
#X connect 56 0 50 0;
#X connect 57 0 58 0;
#X connect 58 0 51 0;
