#N canvas 17 39 1280 692 10;
#X declare -lib mrpeach;
#X obj 27 59 unpackOSC;
#X obj 27 33 udpreceive 12345;
#X obj 26 223 routeOSC /roll /pitch /yaw;
#X floatatom 26 247 5 0 0 0 - - -;
#X floatatom 77 246 5 0 0 0 - - -;
#X floatatom 128 248 5 0 0 0 - - -;
#X obj 27 85 routeOSC /myo-music;
#X obj 27 117 routeOSC /position /pose;
#X floatatom 152 189 5 0 0 0 - - -;
#X floatatom 208 189 5 0 0 0 - - -;
#X obj 97 160 routeOSC /event /pinky /spread /fist /waveleft /waveleft
;
#X obj 97 188 bng 15 250 50 0 empty empty empty 17 7 0 10 -262144 -1
-1;
#X floatatom 263 189 5 0 0 0 - - -;
#X floatatom 319 189 5 0 0 0 - - -;
#X floatatom 374 189 5 0 0 0 - - -;
#X obj 259 34 import mrpeach;
#X obj 272 334 mtof;
#X obj 168 338 mtof;
#X obj 169 371 osc~;
#X obj 272 369 osc~;
#X obj -53 376 > 50;
#X obj 4 636 dac~;
#X obj 4 537 +~ 300;
#X msg 38 461 3;
#X msg 4 465 0.1;
#X obj 4 513 *~ 800;
#X obj 4 609 environment;
#X obj 4 436 loadbang;
#X obj -53 419 tgl 15 0 empty empty empty 0 -6 0 8 -262144 -1 -1 0
1;
#X obj 91 373 < 50;
#X obj 4 487 logosc~;
#X obj 4 561 logosc~;
#X obj 4 585 plastichorn~;
#X obj -53 466 spigot;
#X obj -53 440 t b f;
#X obj -53 491 bng 15 250 50 0 empty empty empty 17 7 0 10 -262144
-1 -1;
#X obj -53 398 change;
#X obj 91 417 tgl 15 0 empty empty empty 0 -6 0 8 -262144 -1 -1 0 1
;
#X obj 91 464 spigot;
#X obj 91 438 t b f;
#X obj 91 489 bng 15 250 50 0 empty empty empty 17 7 0 10 -262144 -1
-1;
#X obj 91 396 change;
#X obj 364 529 trigger;
#X obj 169 301 * 3;
#X obj 272 295 * 3;
#X connect 0 0 6 0;
#X connect 1 0 0 0;
#X connect 2 0 3 0;
#X connect 2 1 4 0;
#X connect 2 2 5 0;
#X connect 3 0 20 0;
#X connect 3 0 29 0;
#X connect 3 0 43 0;
#X connect 5 0 44 0;
#X connect 6 0 7 0;
#X connect 7 0 2 0;
#X connect 7 1 10 0;
#X connect 10 0 11 0;
#X connect 10 1 8 0;
#X connect 10 2 9 0;
#X connect 10 3 12 0;
#X connect 10 4 13 0;
#X connect 10 5 14 0;
#X connect 16 0 19 0;
#X connect 17 0 18 0;
#X connect 20 0 36 0;
#X connect 22 0 31 0;
#X connect 23 0 30 0;
#X connect 24 0 30 0;
#X connect 25 0 22 0;
#X connect 26 0 21 0;
#X connect 26 0 21 1;
#X connect 27 0 24 0;
#X connect 28 0 34 0;
#X connect 29 0 41 0;
#X connect 30 0 25 0;
#X connect 31 0 32 0;
#X connect 32 0 26 0;
#X connect 33 0 35 0;
#X connect 34 0 33 0;
#X connect 34 1 33 1;
#X connect 35 0 24 0;
#X connect 36 0 28 0;
#X connect 37 0 39 0;
#X connect 38 0 40 0;
#X connect 39 0 38 0;
#X connect 39 1 38 1;
#X connect 40 0 23 0;
#X connect 41 0 37 0;
#X connect 43 0 17 0;
#X connect 44 0 16 0;
