#N canvas 154 237 123 242 10;
#X obj 5 217 dac~;
#X obj 5 118 +~ 300;
#X msg 39 46 3;
#X msg 5 46 0.1;
#X obj 5 94 *~ 800;
#X obj 5 190 environment;
#X obj 5 70 logosc;
#X obj 5 142 logosc;
#X obj 5 166 plastichorn;
#X obj 5 17 loadbang;
#X connect 1 0 7 0;
#X connect 2 0 6 0;
#X connect 3 0 6 0;
#X connect 4 0 1 0;
#X connect 5 0 0 0;
#X connect 5 0 0 1;
#X connect 6 0 4 0;
#X connect 7 0 8 0;
#X connect 8 0 5 0;
#X connect 9 0 3 0;