#N canvas 140 22 450 300 10;
#X obj 37 -134 tgl 15 0 empty empty empty 17 7 0 10 -262144 -1 -1 1
1;
#X obj 37 -159 loadbang;
#X obj 123 -13 -;
#X floatatom 123 33 5 0 0 0 - - -;
#X floatatom 195 -53 5 0 0 0 - - -;
#X floatatom 82 -51 5 0 0 0 - - -;
#X text 182 -32 current value;
#X text 28 -32 previous value;
#X obj 168 -149 inlet;
#X obj 150 81 outlet;
#X obj 168 -79 t f f;
#X obj 123 -52 f;
#X obj 153 -52 f;
#X obj 123 55 t b f;
#X obj 37 -111 metro 100;
#X connect 0 0 14 0;
#X connect 1 0 0 0;
#X connect 2 0 3 0;
#X connect 3 0 13 0;
#X connect 4 0 2 1;
#X connect 8 0 10 0;
#X connect 10 0 12 1;
#X connect 10 1 4 0;
#X connect 11 0 5 0;
#X connect 11 0 2 0;
#X connect 12 0 11 1;
#X connect 13 0 12 0;
#X connect 13 1 9 0;
#X connect 14 0 11 0;
