#N canvas 75 63 1045 556 10;
#X declare -lib mrpeach;
#X msg -158 5 \; pd dsp 1;
#X text -93 13 <-- Turn DSP on by clicking here;
#X text 446 30 Receiving the data;
#X obj 450 116 unpackOSC;
#X obj 450 87 udpreceive 12345;
#X obj 450 139 routeOSC /myo-music;
#X obj 450 57 import mrpeach;
#X text 448 284 based on a value from 0-100;
#X obj 450 164 routeOSC /0 /1 /2 /3;
#N canvas 0 22 569 339 unpackMyo 0;
#X obj 48 113 routeOSC /roll /pitch /yaw;
#X floatatom 48 139 5 0 0 0 - - -;
#X floatatom 99 139 5 0 0 0 - - -;
#X floatatom 150 138 5 0 0 0 - - -;
#X obj 49 7 routeOSC /position /pose;
#X floatatom 234 79 5 0 0 0 - - -;
#X floatatom 290 79 5 0 0 0 - - -;
#X obj 179 78 bng 15 250 50 0 empty empty empty 17 7 0 10 -262144 -1
-1;
#X floatatom 345 79 5 0 0 0 - - -;
#X floatatom 401 79 5 0 0 0 - - -;
#X floatatom 456 79 5 0 0 0 - - -;
#X text 46 162 based on a value from 0-100;
#X obj 290 170 spigot;
#X obj 290 124 t b f;
#X obj 290 103 change;
#X floatatom 309 193 5 0 0 0 - - -;
#X obj 290 194 bng 15 250 50 0 empty empty empty 17 7 0 10 -262144
-1 -1;
#X obj 179 31 routeOSC /new /thumbToPinky /fingersSpread /fist /waveIn
/waveOut;
#X obj 345 170 spigot;
#X obj 345 124 t b f;
#X obj 345 103 change;
#X floatatom 364 193 5 0 0 0 - - -;
#X obj 345 194 bng 15 250 50 0 empty empty empty 17 7 0 10 -262144
-1 -1;
#X obj 401 170 spigot;
#X obj 401 124 t b f;
#X obj 401 103 change;
#X floatatom 420 193 5 0 0 0 - - -;
#X obj 401 194 bng 15 250 50 0 empty empty empty 17 7 0 10 -262144
-1 -1;
#X obj 456 170 spigot;
#X obj 456 124 t b f;
#X obj 456 103 change;
#X floatatom 475 193 5 0 0 0 - - -;
#X obj 456 194 bng 15 250 50 0 empty empty empty 17 7 0 10 -262144
-1 -1;
#X obj 48 249 outlet;
#X obj 99 249 outlet;
#X obj 150 249 outlet;
#X obj 349 249 outlet;
#X obj 234 170 spigot;
#X obj 234 124 t b f;
#X obj 234 103 change;
#X floatatom 253 193 5 0 0 0 - - -;
#X obj 234 194 bng 15 250 50 0 empty empty empty 17 7 0 10 -262144
-1 -1;
#X msg 234 146 0;
#X msg 290 146 1;
#X msg 345 146 2;
#X msg 401 146 3;
#X msg 456 146 4;
#X obj 49 -21 inlet;
#X text 400 250 Gesture ID (0 to 5);
#X connect 0 0 1 0;
#X connect 0 1 2 0;
#X connect 0 2 3 0;
#X connect 1 0 33 0;
#X connect 2 0 34 0;
#X connect 3 0 35 0;
#X connect 4 0 0 0;
#X connect 4 1 17 0;
#X connect 5 0 39 0;
#X connect 6 0 14 0;
#X connect 8 0 20 0;
#X connect 9 0 25 0;
#X connect 10 0 30 0;
#X connect 12 0 15 0;
#X connect 12 0 16 0;
#X connect 13 0 43 0;
#X connect 13 1 12 1;
#X connect 14 0 13 0;
#X connect 15 0 36 0;
#X connect 17 0 7 0;
#X connect 17 1 5 0;
#X connect 17 2 6 0;
#X connect 17 3 8 0;
#X connect 17 4 9 0;
#X connect 17 5 10 0;
#X connect 18 0 21 0;
#X connect 18 0 22 0;
#X connect 19 0 44 0;
#X connect 19 1 18 1;
#X connect 20 0 19 0;
#X connect 21 0 36 0;
#X connect 23 0 26 0;
#X connect 23 0 27 0;
#X connect 24 0 45 0;
#X connect 24 1 23 1;
#X connect 25 0 24 0;
#X connect 26 0 36 0;
#X connect 28 0 31 0;
#X connect 28 0 32 0;
#X connect 29 0 46 0;
#X connect 29 1 28 1;
#X connect 30 0 29 0;
#X connect 31 0 36 0;
#X connect 37 0 40 0;
#X connect 37 0 41 0;
#X connect 38 0 42 0;
#X connect 38 1 37 1;
#X connect 39 0 38 0;
#X connect 40 0 36 0;
#X connect 42 0 37 0;
#X connect 43 0 12 0;
#X connect 44 0 18 0;
#X connect 45 0 23 0;
#X connect 46 0 28 0;
#X connect 47 0 4 0;
#X restore 450 206 pd unpackMyo;
#X floatatom 450 236 5 0 0 0 - - -;
#X floatatom 493 235 5 0 0 0 - - -;
#X floatatom 542 234 5 0 0 0 - - -;
#X obj 450 264 s roll;
#X obj 493 264 s pitch;
#X obj 542 264 s yaw;
#X text 689 226 0 = thumbToPinky;
#X text 690 244 1 = fingerSpread;
#X text 691 261 2 = fist;
#X text 692 279 3 = waveIn;
#X text 692 296 4 = waveOut;
#X floatatom 622 236 5 0 0 0 - - -;
#X text 477 401 based on a value from 0-100;
#N canvas 0 22 569 339 unpackMyo 0;
#X obj 48 113 routeOSC /roll /pitch /yaw;
#X floatatom 48 139 5 0 0 0 - - -;
#X floatatom 99 139 5 0 0 0 - - -;
#X floatatom 150 138 5 0 0 0 - - -;
#X obj 49 7 routeOSC /position /pose;
#X floatatom 234 79 5 0 0 0 - - -;
#X floatatom 290 79 5 0 0 0 - - -;
#X obj 179 78 bng 15 250 50 0 empty empty empty 17 7 0 10 -262144 -1
-1;
#X floatatom 345 79 5 0 0 0 - - -;
#X floatatom 401 79 5 0 0 0 - - -;
#X floatatom 456 79 5 0 0 0 - - -;
#X text 46 162 based on a value from 0-100;
#X obj 290 170 spigot;
#X obj 290 124 t b f;
#X obj 290 103 change;
#X floatatom 309 193 5 0 0 0 - - -;
#X obj 290 194 bng 15 250 50 0 empty empty empty 17 7 0 10 -262144
-1 -1;
#X obj 179 31 routeOSC /new /thumbToPinky /fingersSpread /fist /waveIn
/waveOut;
#X obj 345 170 spigot;
#X obj 345 124 t b f;
#X obj 345 103 change;
#X floatatom 364 193 5 0 0 0 - - -;
#X obj 345 194 bng 15 250 50 0 empty empty empty 17 7 0 10 -262144
-1 -1;
#X obj 401 170 spigot;
#X obj 401 124 t b f;
#X obj 401 103 change;
#X floatatom 420 193 5 0 0 0 - - -;
#X obj 401 194 bng 15 250 50 0 empty empty empty 17 7 0 10 -262144
-1 -1;
#X obj 456 170 spigot;
#X obj 456 124 t b f;
#X obj 456 103 change;
#X floatatom 475 193 5 0 0 0 - - -;
#X obj 456 194 bng 15 250 50 0 empty empty empty 17 7 0 10 -262144
-1 -1;
#X obj 48 249 outlet;
#X obj 99 249 outlet;
#X obj 150 249 outlet;
#X obj 349 249 outlet;
#X obj 234 170 spigot;
#X obj 234 124 t b f;
#X obj 234 103 change;
#X floatatom 253 193 5 0 0 0 - - -;
#X obj 234 194 bng 15 250 50 0 empty empty empty 17 7 0 10 -262144
-1 -1;
#X msg 234 146 0;
#X msg 290 146 1;
#X msg 345 146 2;
#X msg 401 146 3;
#X msg 456 146 4;
#X obj 49 -21 inlet;
#X text 400 250 Gesture ID (0 to 5);
#X connect 0 0 1 0;
#X connect 0 1 2 0;
#X connect 0 2 3 0;
#X connect 1 0 33 0;
#X connect 2 0 34 0;
#X connect 3 0 35 0;
#X connect 4 0 0 0;
#X connect 4 1 17 0;
#X connect 5 0 39 0;
#X connect 6 0 14 0;
#X connect 8 0 20 0;
#X connect 9 0 25 0;
#X connect 10 0 30 0;
#X connect 12 0 15 0;
#X connect 12 0 16 0;
#X connect 13 0 43 0;
#X connect 13 1 12 1;
#X connect 14 0 13 0;
#X connect 15 0 36 0;
#X connect 17 0 7 0;
#X connect 17 1 5 0;
#X connect 17 2 6 0;
#X connect 17 3 8 0;
#X connect 17 4 9 0;
#X connect 17 5 10 0;
#X connect 18 0 21 0;
#X connect 18 0 22 0;
#X connect 19 0 44 0;
#X connect 19 1 18 1;
#X connect 20 0 19 0;
#X connect 21 0 36 0;
#X connect 23 0 26 0;
#X connect 23 0 27 0;
#X connect 24 0 45 0;
#X connect 24 1 23 1;
#X connect 25 0 24 0;
#X connect 26 0 36 0;
#X connect 28 0 31 0;
#X connect 28 0 32 0;
#X connect 29 0 46 0;
#X connect 29 1 28 1;
#X connect 30 0 29 0;
#X connect 31 0 36 0;
#X connect 37 0 40 0;
#X connect 37 0 41 0;
#X connect 38 0 42 0;
#X connect 38 1 37 1;
#X connect 39 0 38 0;
#X connect 40 0 36 0;
#X connect 42 0 37 0;
#X connect 43 0 12 0;
#X connect 44 0 18 0;
#X connect 45 0 23 0;
#X connect 46 0 28 0;
#X connect 47 0 4 0;
#X restore 479 323 pd unpackMyo;
#X floatatom 479 353 5 0 0 0 - - -;
#X floatatom 522 352 5 0 0 0 - - -;
#X floatatom 571 351 5 0 0 0 - - -;
#X text 718 343 0 = thumbToPinky;
#X text 719 361 1 = fingerSpread;
#X text 720 378 2 = fist;
#X text 721 396 3 = waveIn;
#X text 721 413 4 = waveOut;
#X floatatom 640 351 5 0 0 0 - - -;
#X obj 479 381 s roll_2;
#X obj 522 381 s pitch_2;
#X obj 571 381 s yaw_2;
#X obj 640 381 s gesture_2;
#X obj 622 260 s gesture;
#X obj 458 489 arm_velocity;
#N canvas 0 22 991 533 guitar 0;
#X obj -93 131 loadbang;
#X msg -98 161 0.995;
#X msg -55 161 5700;
#X obj -128 255 s \$0-width_ctrl;
#X obj -98 231 s \$0-decay_ctrl;
#X obj -55 210 s \$0-cutoff_ctrl;
#X msg -128 161 8;
#X obj -22 187 s \$0-strum_speed_ctrl;
#X obj 193 42 inlet;
#X obj 310 45 inlet;
#X text 192 17 Strummer toggle;
#X text 307 17 Chord ID;
#X obj 334 139 hsl 180 15 1 40 0 0 empty \$0-width_ctrl width -2 -8
1 10 -262144 -1 -1 3213 1;
#X obj 333 172 hsl 180 15 0.9 0.999 0 0 empty \$0-decay_ctrl decay
-2 -8 1 10 -262144 -1 -1 17177 1;
#X obj 334 205 hsl 180 15 2000 8000 0 0 empty \$0-cutoff_ctrl cutoff
-2 -8 1 10 -262144 -1 -1 11038 1;
#N canvas 319 292 847 508 plucked_instrument 0;
#X obj 22 63 inlet;
#X obj 92 60 inlet;
#X obj 175 60 inlet;
#X obj 241 59 inlet;
#X obj 311 60 inlet;
#X obj 374 63 inlet;
#X obj 473 65 inlet;
#X obj 515 65 inlet;
#X obj 557 65 inlet;
#X text 17 16 6 inlets representing the six strings of our instrument.
A midi note integer message to any inlet excites that particular string
at the specified pitch.;
#X text 469 46 Width \, decay \, and cutoff inlets;
#X obj 21 165 karpluck~;
#X obj 21 373 outlet~;
#X obj 21 349 *~ 0.25;
#X obj 473 128 s \$0-width;
#X obj 516 107 s \$0-decay;
#X obj 557 87 s \$0-cutoff;
#X obj 106 87 r \$0-width;
#X obj 188 89 r \$0-decay;
#X obj 264 90 r \$0-cutoff;
#X obj 92 181 karpluck~;
#X obj 175 203 karpluck~;
#X obj 241 224 karpluck~;
#X obj 309 233 karpluck~;
#X obj 374 264 karpluck~;
#X text 334 112 comment;
#X text 73 343 scale the output down by approx 12dB to avoid clipping
;
#X connect 0 0 11 0;
#X connect 1 0 20 0;
#X connect 2 0 21 0;
#X connect 3 0 22 0;
#X connect 4 0 23 0;
#X connect 5 0 24 0;
#X connect 6 0 14 0;
#X connect 7 0 15 0;
#X connect 8 0 16 0;
#X connect 11 0 13 0;
#X connect 13 0 12 0;
#X connect 17 0 11 1;
#X connect 17 0 20 1;
#X connect 17 0 21 1;
#X connect 17 0 22 1;
#X connect 17 0 23 1;
#X connect 17 0 24 1;
#X connect 18 0 11 2;
#X connect 18 0 20 2;
#X connect 18 0 21 2;
#X connect 18 0 22 2;
#X connect 18 0 23 2;
#X connect 18 0 24 2;
#X connect 19 0 11 3;
#X connect 19 0 20 3;
#X connect 19 0 22 3;
#X connect 19 0 21 3;
#X connect 19 0 23 3;
#X connect 19 0 24 3;
#X connect 20 0 13 0;
#X connect 21 0 13 0;
#X connect 22 0 13 0;
#X connect 23 0 13 0;
#X connect 24 0 13 0;
#X restore 193 307 pd plucked_instrument;
#X obj 224 82 hsl 180 15 1 250 0 0 empty \$0-strum_speed_ctrl strum_speed
-2 -8 1 10 -262144 -1 -1 216 1;
#X obj 193 110 tgl 15 0 empty empty empty 17 7 0 10 -262144 -1 -1 0
1;
#X text -10 109 Click here to start strummer -->;
#X obj 193 152 strummer4c;
#X obj 483 22 vradio 15 1 0 4 empty empty empty 0 -8 0 10 -262144 -1
-1 0;
#X floatatom 250 131 5 0 0 0 - - -;
#X obj 202 432 osc~;
#X obj 202 498 *~;
#X obj 202 549 clip~ -1 1;
#X obj 230 474 hsl 128 15 1 20 1 0 empty empty empty -2 -8 0 10 -262144
-1 -1 0 1;
#X obj 205 404 hsl 128 15 0.5 25 0 0 empty empty empty -2 -8 0 10 -262144
-1 -1 0 1;
#X text 235 433 <-- Sine wave (between -1 and 1);
#X text 231 497 <-- Multipled by a positive number X;
#X text 253 511 (between -X and X);
#X text 273 549 <-- Trim at -1 and 1;
#X text 296 577 a square wave as X increases);
#X text 296 563 (the sine wave tends to become;
#X text 328 669 <-- Normalize between 0 and 1;
#X text 199 386 Frequency of the oscillator;
#X text 225 457 Number X (between 1 and 20 \, log);
#X obj 202 632 *~;
#X obj 202 661 +~;
#X floatatom 300 644 5 0 0 0 - - -;
#X obj 259 669 expr 1-$f1;
#X floatatom 259 691 5 0 0 0 - - -;
#X text 351 681 and adjust depth;
#X text 376 386 ("Rate");
#X text 434 457 ("Shape");
#X obj 187 689 *~;
#X text 229 345 Tembello;
#X obj 188 916 freeverb~;
#X msg 242 761 roomsize \$1;
#X msg 243 822 damping \$1;
#X msg 435 784 wet \$1;
#X msg 434 805 dry \$1;
#X msg 435 857 freeze \$1;
#X msg 435 897 bypass \$1;
#X obj 435 840 tgl 15 0 empty empty empty 17 7 0 10 -262144 -1 -1 0
1;
#X obj 435 880 tgl 15 0 empty empty empty 17 7 0 10 -262144 -1 -1 0
1;
#X floatatom 479 760 5 0 0 0 - - -;
#X obj 495 788 expr 1-$f1;
#X obj 245 740 hsl 128 15 0 1 0 0 empty empty empty -2 -8 0 10 -4034
-1 -1 0 1;
#X obj 246 802 hsl 128 15 0 1 0 0 empty empty empty -2 -8 0 10 -260097
-1 -1 0 1;
#X floatatom 381 801 5 0 0 0 - - -;
#X floatatom 380 739 5 0 0 0 - - -;
#X text 502 857 Freeze the reverb;
#X text 503 900 the dry signal pass through.;
#X text 502 887 Trun the reverb off and let;
#X text 574 775 Wet signal to dry signal ratio;
#X text 574 791 (0 : all dry \, 1 : all wet);
#X text 240 783 Damping level;
#X text 240 722 Roomize;
#X floatatom 354 287 5 0 0 0 - - -;
#X text 392 262 between 2000-8000;
#X obj 435 759 / 100;
#X text 341 642 between 0-0.5;
#X text 515 760 between 0-1;
#X obj 354 263 * 80;
#X obj 259 644 / 200;
#X obj 354 239 r roll;
#X text 293 596 ("Depth");
#X obj 259 619 r pitch;
#X obj 435 736 r yaw;
#X obj 188 950 outlet~;
#X obj 247 950 outlet~;
#X text -109 57 Pierre Massat \, GuitarExtended \, 2012;
#X msg -15 162 4;
#X connect 0 0 6 0;
#X connect 0 0 1 0;
#X connect 0 0 2 0;
#X connect 0 0 82 0;
#X connect 1 0 4 0;
#X connect 2 0 5 0;
#X connect 6 0 3 0;
#X connect 8 0 17 0;
#X connect 9 0 21 0;
#X connect 12 0 15 6;
#X connect 13 0 15 7;
#X connect 15 0 44 0;
#X connect 16 0 19 1;
#X connect 17 0 19 0;
#X connect 19 0 15 0;
#X connect 19 1 15 1;
#X connect 19 2 15 2;
#X connect 19 3 15 3;
#X connect 19 4 15 4;
#X connect 19 5 15 5;
#X connect 21 0 19 2;
#X connect 22 0 23 0;
#X connect 23 0 24 0;
#X connect 24 0 36 0;
#X connect 25 0 23 1;
#X connect 26 0 22 0;
#X connect 36 0 37 0;
#X connect 37 0 44 1;
#X connect 39 0 37 1;
#X connect 39 0 40 0;
#X connect 44 0 46 0;
#X connect 46 0 79 0;
#X connect 46 1 80 0;
#X connect 47 0 46 0;
#X connect 48 0 46 0;
#X connect 49 0 46 0;
#X connect 50 0 46 0;
#X connect 51 0 46 0;
#X connect 52 0 46 0;
#X connect 53 0 51 0;
#X connect 54 0 52 0;
#X connect 56 0 50 0;
#X connect 57 0 47 0;
#X connect 57 0 60 0;
#X connect 58 0 48 0;
#X connect 58 0 59 0;
#X connect 70 0 49 0;
#X connect 70 0 56 0;
#X connect 70 0 55 0;
#X connect 73 0 15 8;
#X connect 73 0 68 0;
#X connect 74 0 36 1;
#X connect 74 0 38 0;
#X connect 74 0 39 0;
#X connect 75 0 73 0;
#X connect 77 0 74 0;
#X connect 78 0 70 0;
#X connect 82 0 7 0;
#X restore 61 180 pd guitar;
#X obj 61 75 tgl 15 0 empty empty empty 17 7 0 10 -262144 -1 -1 0 1
;
#X obj 61 242 dac~;
#X obj 112 53 r gesture;
#X obj 112 75 - 1;
#X text -141 73 Click here to start strummer -->;
#X obj 206 119 change;
#X floatatom 217 143 5 0 0 0 - - -;
#X msg 112 153 0;
#X obj 112 128 prepend set;
#X obj 206 73 r pitch;
#X obj 206 192 spigot;
#X text 204 50 Play on arm movement;
#X obj 206 166 t b f;
#N canvas 329 22 790 490 drum 0;
#X obj 46 244 tabplay~ snare;
#X obj 46 217 bng 15 250 50 0 empty empty empty 17 7 0 10 -262144 -1
-1;
#X obj 148 217 bng 15 250 50 0 empty empty empty 17 7 0 10 -262144
-1 -1;
#X obj 421 126 table snare;
#X obj 425 159 bng 15 250 50 0 empty empty empty 17 7 0 10 -262144
-1 -1;
#X obj 425 183 openpanel;
#X obj 425 245 soundfiler;
#X obj 426 325 bng 15 250 50 0 empty empty empty 17 7 0 10 -262144
-1 -1;
#X obj 426 349 openpanel;
#X obj 426 411 soundfiler;
#X text 40 24 comport reads the serial port for incoming values The
arduino sketch detects knocks on the piezosensor ( i.e if sensorValue
> threshold) and writes 1 or 2 in the serialport depending on which
piezo is hit.;
#X msg 425 215 read -resize \$1 snare;
#X obj 46 280 *~ 0.5;
#X obj 148 280 *~ 0.5;
#X text 452 156 Click to load sample;
#X text 452 324 Click to load sample;
#X obj 245 217 bng 15 250 50 0 empty empty empty 17 7 0 10 -262144
-1 -1;
#X obj 245 280 *~ 0.5;
#X obj 45 361 outlet~;
#X obj 149 363 outlet~;
#X obj 46 115 inlet;
#X obj 90 115 inlet;
#X obj 132 115 inlet;
#X obj 594 157 bng 15 250 50 0 empty empty empty 17 7 0 10 -262144
-1 -1;
#X obj 594 181 openpanel;
#X obj 594 243 soundfiler;
#X text 621 154 Click to load sample;
#X msg 594 213 read -resize \$1 hihat;
#X obj 590 124 table hihat;
#X obj 208 116 inlet;
#X text 252 115 Strenght;
#X msg 312 194 0.5;
#X obj 312 165 loadbang;
#X obj 245 244 tabplay~ hihat;
#X obj 148 244 tabplay~ kick;
#X obj 422 292 table kick;
#X msg 426 381 read -resize \$1 kick;
#X msg 470 92 read -resize sounds/hihat1.wav hihat;
#X msg 425 45 read -resize sounds/snaredrum1.wav snare;
#X msg 448 68 read -resize sounds/kickdrum1.wav kick;
#X obj 425 22 loadbang;
#X connect 0 0 12 0;
#X connect 1 0 0 0;
#X connect 2 0 34 0;
#X connect 4 0 5 0;
#X connect 5 0 11 0;
#X connect 7 0 8 0;
#X connect 8 0 36 0;
#X connect 11 0 6 0;
#X connect 12 0 18 0;
#X connect 12 0 19 0;
#X connect 13 0 18 0;
#X connect 13 0 19 0;
#X connect 16 0 33 0;
#X connect 17 0 18 0;
#X connect 17 0 19 0;
#X connect 20 0 1 0;
#X connect 21 0 2 0;
#X connect 22 0 16 0;
#X connect 23 0 24 0;
#X connect 24 0 27 0;
#X connect 27 0 25 0;
#X connect 29 0 12 1;
#X connect 29 0 13 1;
#X connect 29 0 17 1;
#X connect 31 0 17 1;
#X connect 31 0 13 1;
#X connect 31 0 12 1;
#X connect 32 0 31 0;
#X connect 33 0 17 0;
#X connect 34 0 13 0;
#X connect 36 0 9 0;
#X connect 37 0 25 0;
#X connect 38 0 6 0;
#X connect 39 0 9 0;
#X connect 40 0 38 0;
#X connect 40 0 39 0;
#X connect 40 0 37 0;
#X restore 88 470 pd drum;
#X obj 88 503 dac~;
#X obj 81 422 gate 3;
#X msg 81 299 1;
#X msg 113 298 2;
#X msg 147 297 3;
#X obj 81 326 t b f;
#X floatatom 127 447 5 0 0 0 - - -;
#X text 457 442 VELOCITIES;
#X obj 231 353 change;
#X floatatom 242 377 5 0 0 0 - - -;
#X obj 231 426 spigot;
#X text 229 284 Play on arm movement;
#X obj 231 400 t b f;
#X msg 165 510 1;
#X obj 231 307 r pitch_2;
#X obj 458 464 r pitch_2;
#X obj 538 464 r roll_2;
#X obj 619 464 r yaw_2;
#X obj 458 516 s pitch_vel_2;
#X obj 538 516 s roll_vel_2;
#X obj 619 516 s yaw_vel_2;
#X obj -182 303 r yaw_2;
#X obj -182 383 &&;
#X floatatom -182 407 5 0 0 0 - - -;
#X obj -182 496 spigot;
#X obj -182 450 t b f;
#X obj -182 429 change;
#X msg -182 472 1;
#X obj -116 383 &&;
#X floatatom -116 407 5 0 0 0 - - -;
#X obj -116 496 spigot;
#X obj -116 450 t b f;
#X obj -116 429 change;
#X obj -45 383 &&;
#X floatatom -45 407 5 0 0 0 - - -;
#X obj -45 496 spigot;
#X obj -45 450 t b f;
#X obj -45 429 change;
#X obj 127 397 f;
#X obj 538 489 arm_velocity;
#X obj 619 489 arm_velocity;
#X obj 258 525 f;
#X obj 231 448 t b b b;
#X floatatom 294 516 5 0 0 0 - - -;
#X obj -182 353 >= 0;
#X msg -116 472 3;
#X msg -45 472 2;
#X obj 112 102 max 0;
#X obj 258 499 max;
#X msg 273 474 0;
#X obj 126 368 / 40;
#X obj 126 343 - 40;
#X obj 206 96 < 50;
#X obj 61 210 *~ 0.5;
#X obj 112 209 *~ 0.5;
#X obj 231 330 < 50;
#X obj -156 353 < 30;
#X obj -116 353 > 30;
#X obj -83 353 < 60;
#X obj -45 353 > 60;
#X obj -12 353 < 90;
#X connect 3 0 5 0;
#X connect 4 0 3 0;
#X connect 5 0 8 0;
#X connect 8 0 9 0;
#X connect 8 1 23 0;
#X connect 9 0 10 0;
#X connect 9 1 11 0;
#X connect 9 2 12 0;
#X connect 9 3 21 0;
#X connect 10 0 13 0;
#X connect 11 0 14 0;
#X connect 12 0 15 0;
#X connect 21 0 37 0;
#X connect 23 0 24 0;
#X connect 23 1 25 0;
#X connect 23 2 26 0;
#X connect 23 3 32 0;
#X connect 24 0 33 0;
#X connect 25 0 34 0;
#X connect 26 0 35 0;
#X connect 32 0 36 0;
#X connect 38 0 72 0;
#X connect 39 0 107 0;
#X connect 39 1 108 0;
#X connect 40 0 39 0;
#X connect 42 0 43 0;
#X connect 43 0 101 0;
#X connect 45 0 46 0;
#X connect 45 0 52 0;
#X connect 46 0 52 0;
#X connect 47 0 39 1;
#X connect 48 0 47 0;
#X connect 49 0 106 0;
#X connect 50 0 47 0;
#X connect 52 0 50 0;
#X connect 52 1 50 1;
#X connect 53 0 54 0;
#X connect 53 1 54 1;
#X connect 55 0 53 0;
#X connect 55 1 53 1;
#X connect 55 2 53 2;
#X connect 56 0 59 0;
#X connect 57 0 59 0;
#X connect 58 0 59 0;
#X connect 59 1 55 0;
#X connect 60 0 53 3;
#X connect 62 0 63 0;
#X connect 62 0 66 0;
#X connect 63 0 66 0;
#X connect 64 0 96 0;
#X connect 66 0 64 0;
#X connect 66 1 64 1;
#X connect 67 0 53 3;
#X connect 68 0 102 0;
#X connect 68 0 109 0;
#X connect 69 0 38 0;
#X connect 70 0 93 0;
#X connect 71 0 94 0;
#X connect 75 0 98 0;
#X connect 75 0 110 0;
#X connect 75 0 111 0;
#X connect 75 0 112 0;
#X connect 75 0 113 0;
#X connect 75 0 114 0;
#X connect 76 0 77 0;
#X connect 77 0 80 0;
#X connect 78 0 59 0;
#X connect 79 0 81 0;
#X connect 79 1 78 1;
#X connect 80 0 79 0;
#X connect 81 0 78 0;
#X connect 82 0 83 0;
#X connect 83 0 86 0;
#X connect 84 0 59 0;
#X connect 85 0 99 0;
#X connect 85 1 84 1;
#X connect 86 0 85 0;
#X connect 87 0 88 0;
#X connect 88 0 91 0;
#X connect 89 0 59 0;
#X connect 90 0 100 0;
#X connect 90 1 89 1;
#X connect 91 0 90 0;
#X connect 92 0 60 0;
#X connect 93 0 73 0;
#X connect 94 0 74 0;
#X connect 95 0 97 0;
#X connect 95 0 102 1;
#X connect 95 0 105 0;
#X connect 96 0 55 1;
#X connect 96 1 92 0;
#X connect 96 2 103 0;
#X connect 98 0 76 0;
#X connect 99 0 84 0;
#X connect 100 0 89 0;
#X connect 101 0 48 0;
#X connect 102 0 95 0;
#X connect 103 0 102 1;
#X connect 104 0 92 1;
#X connect 105 0 104 0;
#X connect 106 0 45 0;
#X connect 107 0 41 0;
#X connect 108 0 41 1;
#X connect 109 0 62 0;
#X connect 110 0 76 1;
#X connect 111 0 82 0;
#X connect 112 0 82 1;
#X connect 113 0 87 0;
#X connect 114 0 87 1;
