#N canvas 0 22 668 670 10;
#X obj 120 46 inlet;
#X obj 257 25 inlet;
#X text 300 47 strum speed inlet and default value;
#X obj 82 592 outlet;
#X obj 134 595 outlet;
#X obj 182 601 outlet;
#X obj 227 601 outlet;
#X obj 273 601 outlet;
#X obj 320 601 outlet;
#X obj 120 99 i 0;
#X obj 120 124 + 1;
#X obj 120 325 route 0 1 2 3 4 5 6 7;
#X obj 120 153 % 8;
#X obj 165 116 i;
#X obj 120 176 t f f;
#X obj 120 367 bng 15 250 50 0 empty empty empty 17 7 0 10 -262144
-1 -1;
#X obj 257 81 s \$0-strum_speed;
#X obj 282 363 r \$0-strum_speed;
#X obj 193 530 i 52;
#X obj 119 475 i 40;
#X obj 158 493 i 49;
#X obj 228 548 i 55;
#X obj 267 553 i 59;
#X obj 303 573 i 64;
#X text 162 172 Generate a simple 8 note strum pattern;
#X text 219 230 Every 8 notes \, randomly change chords;
#X obj 257 49 i 15;
#X obj 158 425 del 15;
#X obj 193 447 del 15;
#X obj 228 468 del 15;
#X obj 267 490 del 15;
#X obj 303 522 del 15;
#X obj 556 38 inlet;
#X obj 556 77 i 0;
#X floatatom 583 130 5 0 0 0 - - -;
#X obj 46 389 chords4c;
#X obj 120 72 metro 200;
#X connect 0 0 36 0;
#X connect 1 0 26 0;
#X connect 9 0 10 0;
#X connect 10 0 12 0;
#X connect 11 0 15 0;
#X connect 11 3 15 0;
#X connect 11 5 15 0;
#X connect 11 7 15 0;
#X connect 12 0 13 0;
#X connect 12 0 14 0;
#X connect 13 0 9 1;
#X connect 14 0 11 0;
#X connect 15 0 19 0;
#X connect 15 0 27 0;
#X connect 17 0 27 1;
#X connect 17 0 28 1;
#X connect 17 0 29 1;
#X connect 17 0 30 1;
#X connect 17 0 31 1;
#X connect 18 0 5 0;
#X connect 19 0 3 0;
#X connect 20 0 4 0;
#X connect 21 0 6 0;
#X connect 22 0 7 0;
#X connect 23 0 8 0;
#X connect 26 0 16 0;
#X connect 27 0 20 0;
#X connect 27 0 28 0;
#X connect 28 0 18 0;
#X connect 28 0 29 0;
#X connect 29 0 21 0;
#X connect 29 0 30 0;
#X connect 30 0 22 0;
#X connect 30 0 31 0;
#X connect 31 0 23 0;
#X connect 32 0 33 0;
#X connect 33 0 34 0;
#X connect 33 0 35 0;
#X connect 35 0 19 0;
#X connect 35 1 20 0;
#X connect 35 2 18 0;
#X connect 35 3 21 0;
#X connect 35 4 22 0;
#X connect 35 5 23 0;
#X connect 36 0 9 0;
