#N canvas 407 22 873 538 10;
#X obj 27 59 unpackOSC;
#X obj 27 33 udpreceive 12345;
#X obj 27 273 routeOSC /roll /pitch /yaw;
#X floatatom 27 297 5 0 0 0 - - -;
#X floatatom 78 296 5 0 0 0 - - -;
#X floatatom 129 298 5 0 0 0 - - -;
#X obj 27 167 routeOSC /position /pose;
#X floatatom 152 239 5 0 0 0 - - -;
#X floatatom 208 239 5 0 0 0 - - -;
#X obj 97 238 bng 15 250 50 0 empty empty empty 17 7 0 10 -262144 -1
-1;
#X floatatom 263 239 5 0 0 0 - - -;
#X floatatom 319 239 5 0 0 0 - - -;
#X floatatom 374 239 5 0 0 0 - - -;
#X text 624 568 see also:;
#X obj 97 200 routeOSC /new /thumbToPinky /fingersSpread /fist /waveIn
/waveOut;
#X obj 458 273 routeOSC /roll /pitch /yaw;
#X floatatom 458 297 5 0 0 0 - - -;
#X floatatom 509 296 5 0 0 0 - - -;
#X floatatom 560 298 5 0 0 0 - - -;
#X obj 458 167 routeOSC /position /pose;
#X floatatom 583 239 5 0 0 0 - - -;
#X floatatom 639 239 5 0 0 0 - - -;
#X obj 528 238 bng 15 250 50 0 empty empty empty 17 7 0 10 -262144
-1 -1;
#X floatatom 694 239 5 0 0 0 - - -;
#X floatatom 750 239 5 0 0 0 - - -;
#X floatatom 805 239 5 0 0 0 - - -;
#X obj 528 200 routeOSC /new /thumbToPinky /fingersSpread /fist /waveIn
/waveOut;
#X obj 27 85 routeOSC /myo-music;
#X obj 168 121 print;
#X obj 27 121 routeOSC /0 /1 /2 /3;
#X connect 0 0 27 0;
#X connect 1 0 0 0;
#X connect 2 0 3 0;
#X connect 2 1 4 0;
#X connect 2 2 5 0;
#X connect 6 0 2 0;
#X connect 6 1 14 0;
#X connect 14 0 9 0;
#X connect 14 1 7 0;
#X connect 14 2 8 0;
#X connect 14 3 10 0;
#X connect 14 4 11 0;
#X connect 14 5 12 0;
#X connect 15 0 16 0;
#X connect 15 1 17 0;
#X connect 15 2 18 0;
#X connect 19 0 15 0;
#X connect 19 1 26 0;
#X connect 26 0 22 0;
#X connect 26 1 20 0;
#X connect 26 2 21 0;
#X connect 26 3 23 0;
#X connect 26 4 24 0;
#X connect 26 5 25 0;
#X connect 27 0 29 0;
#X connect 29 0 6 0;
#X connect 29 1 19 0;
