#N canvas 34 22 918 715 12;
#X obj 7 4 cnv 15 900 700 empty empty http://www.algorithmiccomposer.com
20 12 0 14 -261234 -66577 0;
#X obj 381 154 table pianoPhrase;
#X msg 382 105 \; pianoPhrase 0 64 66 71 73 74 66 64 73 71 66 74 73
;
#X obj 180 351 tabread pianoPhrase;
#X floatatom 180 297 5 0 0 0 - - -;
#X floatatom 180 383 5 0 0 0 - - -;
#X obj 180 248 counter 0 11;
#X obj 180 209 metro 125;
#X obj 382 71 loadbang;
#X obj 387 352 tabread pianoPhrase;
#X floatatom 387 298 5 0 0 0 - - -;
#X floatatom 387 384 5 0 0 0 - - -;
#X obj 387 249 counter 0 11;
#X obj 387 210 metro 124;
#X obj 180 106 tgl 15 0 empty empty empty 17 7 0 10 -262144 -1 -1 1
1;
#X text 299 41 Piano Phase;
#X text 31 105 toggle;
#X text 29 205 metro object;
#X text 25 250 counter object;
#X text 26 296 number box;
#X text 26 347 tabread object;
#X text 27 382 number box;
#X obj 180 441 mtof~;
#X obj 387 441 mtof~;
#X obj 180 476 osc~ 440;
#X obj 180 514 dac~;
#X obj 387 470 osc~ 440;
#X obj 632 433 makenote 100 125;
#X obj 632 503 noteout 1;
#X obj 839 432 makenote 100 125;
#X obj 839 502 noteout 2;
#X text 476 433 makenote object;
#X text 477 502 noteout object;
#X connect 3 0 5 0;
#X connect 4 0 3 0;
#X connect 5 0 22 0;
#X connect 6 0 4 0;
#X connect 7 0 6 0;
#X connect 8 0 2 0;
#X connect 9 0 11 0;
#X connect 10 0 9 0;
#X connect 11 0 23 0;
#X connect 12 0 10 0;
#X connect 13 0 12 0;
#X connect 14 0 7 0;
#X connect 14 0 13 0;
#X connect 22 0 24 0;
#X connect 23 0 26 0;
#X connect 24 0 25 0;
#X connect 26 0 25 1;
#X connect 27 0 28 0;
#X connect 27 1 28 1;
#X connect 29 0 30 0;
#X connect 29 1 30 1;
