#N canvas 285 113 873 538 10;
#X obj 27 59 unpackOSC;
#X obj 27 33 udpreceive 12345;
#X obj 26 223 routeOSC /roll /pitch /yaw;
#X floatatom 26 247 5 0 0 0 - - -;
#X floatatom 77 246 5 0 0 0 - - -;
#X floatatom 128 248 5 0 0 0 - - -;
#X obj 27 85 routeOSC /myo-music;
#X obj 27 117 routeOSC /position /pose;
#X floatatom 152 189 5 0 0 0 - - -;
#X floatatom 208 189 5 0 0 0 - - -;
#X obj 97 160 routeOSC /event /pinky /spread /fist /waveleft /waveleft
;
#X obj 97 188 bng 15 250 50 0 empty empty empty 17 7 0 10 -262144 -1
-1;
#X floatatom 263 189 5 0 0 0 - - -;
#X floatatom 319 189 5 0 0 0 - - -;
#X floatatom 374 189 5 0 0 0 - - -;
#X obj 41 376 dac~;
#X obj 176 309 osc~;
#X obj 452 462 dac~ 1;
#X obj 452 434 *~;
#X floatatom 356 257 0 0 0 0 - - -;
#X obj 476 406 line~;
#X msg 476 350 0.1 100;
#X msg 495 375 0 100;
#X text 547 345 on;
#X text 544 374 off;
#X text 533 403 envelope;
#X text 533 416 generator;
#X text 460 325 amplitude controls:;
#X text 450 486 audio output;
#X text 624 568 see also:;
#X obj 326 436 metro 500;
#X obj 326 411 r metro;
#X text 288 486 graph the output;
#X text 203 262 change frequency;
#X text 444 287 <-- creation argument sets initial frequency;
#X text 431 265 v-- inlet resets phase;
#N canvas 0 22 450 300 (subpatch) 0;
#X array array99 100 float 0;
#X coords 0 -1 100 1 200 100 1;
#X restore 294 530 graph;
#X obj 289 464 tabwrite~ array99;
#X obj 356 286 osc~ 1000;
#X connect 0 0 6 0;
#X connect 1 0 0 0;
#X connect 2 0 3 0;
#X connect 2 1 4 0;
#X connect 2 2 5 0;
#X connect 6 0 7 0;
#X connect 7 0 2 0;
#X connect 7 1 10 0;
#X connect 10 0 11 0;
#X connect 10 1 8 0;
#X connect 10 2 9 0;
#X connect 10 3 12 0;
#X connect 10 4 13 0;
#X connect 10 5 14 0;
#X connect 18 0 17 0;
#X connect 19 0 38 0;
#X connect 20 0 18 1;
#X connect 21 0 20 0;
#X connect 22 0 20 0;
#X connect 30 0 37 0;
#X connect 31 0 30 0;
#X connect 31 0 30 0;
#X connect 38 0 18 0;
#X connect 38 0 37 0;
